<?xml version="1.0" encoding="UTF-8"?>
<svg version="1.1" xmlns="http://www.w3.org/2000/svg" width="219" height="230">
<path d="M0 0 C72.27 0 144.54 0 219 0 C219 75.9 219 151.8 219 230 C146.73 230 74.46 230 0 230 C0 154.1 0 78.2 0 0 Z " fill="#F4F4F4" transform="translate(0,0)"/>
<path d="M0 0 C72.27 0 144.54 0 219 0 C219 75.9 219 151.8 219 230 C146.73 230 74.46 230 0 230 C0 154.1 0 78.2 0 0 Z M35 41 C34.25363281 41.67289063 33.50726563 42.34578125 32.73828125 43.0390625 C14.14019534 60.3713101 3.71207993 86.65115292 2.7265625 111.765625 C2.31643697 130.43569054 4.70404963 147.10084183 13 164 C13.52464844 165.07636719 14.04929687 166.15273437 14.58984375 167.26171875 C18.33198072 174.56779569 22.62312055 180.81608423 28 187 C28.67675781 187.82113281 29.35351562 188.64226562 30.05078125 189.48828125 C45.69978473 207.88372776 70.70628324 221.98662966 95 224 C99.75074289 224.21889828 104.49455212 224.29084495 109.25 224.3125 C110.43432617 224.31813965 111.61865234 224.3237793 112.83886719 224.32958984 C136.9515075 224.13050703 159.50992114 215.34226858 178 200 C178.84949219 199.31421875 179.69898438 198.6284375 180.57421875 197.921875 C200.35628537 181.1521482 211.64881445 157.27990991 216 132 C217.70128159 99.8157553 211.26024493 70.81225655 189.4765625 46.28466797 C171.03962239 26.08894081 145.99670123 12.46998503 118.36791992 10.84521484 C86.41644664 9.52868954 58.14988574 18.52055388 35 41 Z " fill="#F4F4F4" transform="translate(0,0)"/>
<path d="M0 0 C20.90585624 17.86549362 37.19903179 42.06320172 39.86083984 70.11132812 C41.36302706 91.50382064 39.57960503 111.15135435 30.03515625 130.59375 C29.51050781 131.67011719 28.98585937 132.74648437 28.4453125 133.85546875 C24.70317553 141.16154569 20.4120357 147.40983423 15.03515625 153.59375 C14.02001953 154.82544922 14.02001953 154.82544922 12.984375 156.08203125 C-0.52874144 171.96673668 -18.30150478 181.48562787 -37.96484375 187.59375 C-39.12113281 187.95726562 -40.27742187 188.32078125 -41.46875 188.6953125 C-68.37280858 195.60920465 -97.54560416 190.28579702 -121.30078125 176.68359375 C-138.94003461 165.41021266 -152.40661702 151.18526653 -161.96484375 132.59375 C-162.43535156 131.70429688 -162.90585938 130.81484375 -163.390625 129.8984375 C-175.84337595 104.68450834 -175.85507171 75.50218284 -167.77734375 49.03125 C-158.07089483 21.50549934 -137.8297248 -0.54093085 -111.65234375 -13.21875 C-75.35308099 -29.94582963 -31.36648249 -24.65413967 0 0 Z M-139.3125 22.2734375 C-153.26541605 39.93596245 -160.39406221 60.82295008 -160.27734375 83.28125 C-160.2717041 84.42247314 -160.26606445 85.56369629 -160.26025391 86.73950195 C-159.9289703 109.90147432 -152.38497467 131.06049002 -136.96484375 148.59375 C-136.31 149.34398437 -135.65515625 150.09421875 -134.98046875 150.8671875 C-125.16756007 161.38101823 -112.48465673 168.9014071 -98.96484375 173.59375 C-97.77632812 174.00625 -96.5878125 174.41875 -95.36328125 174.84375 C-85.93733632 177.72075008 -76.52311089 177.97483926 -66.71484375 178.03125 C-65.45994141 178.04140137 -64.20503906 178.05155273 -62.91210938 178.06201172 C-38.11986327 177.83052178 -15.70360361 167.77965379 2.22265625 150.90625 C21.65531917 130.75616935 27.62648955 104.47067029 27.30859375 77.3046875 C26.6228707 53.15501524 15.78028771 30.85104679 -1.42138672 14.02099609 C-22.0459588 -5.05069774 -49.55918624 -10.66024877 -76.91210938 -9.62402344 C-100.84290509 -7.91686814 -123.5862779 4.32304089 -139.3125 22.2734375 Z " fill="#030303" transform="translate(175.96484375,33.40625)"/>
<path d="M0 0 C4.41672625 4.46321811 6.95666812 10.32499413 9.75 15.875 C10.25660156 16.84308594 10.76320312 17.81117187 11.28515625 18.80859375 C13.96573911 24.11918243 15.80956326 28.02652349 15 34 C13.50392223 37.30711928 12.01238111 38.98930722 9.25 41.375 C6.64220983 43.83557165 6.64220983 43.83557165 7.02734375 47.25390625 C8.18163419 51.69954696 10.25757217 54.28725572 13.3125 57.5625 C14.40798142 58.78607408 15.50302074 60.0100441 16.59765625 61.234375 C17.1611377 61.85505859 17.72461914 62.47574219 18.30517578 63.11523438 C21.01491359 66.12865642 23.62678984 69.223868 26.25 72.3125 C29.67128344 76.30565816 33.09937749 80.29305015 36.5625 84.25 C37.16191406 84.93578125 37.76132813 85.6215625 38.37890625 86.328125 C40.57116959 88.58906165 42.29232277 89.90051822 45.4453125 90.34375 C49.41241284 89.80995057 51.07852838 87.33979434 53.7421875 84.53125 C57.01016479 82.31490554 59.11908056 82.53246919 63 83 C66.359375 84.50390625 66.359375 84.50390625 69.75 86.5625 C70.3490918 86.92239014 70.94818359 87.28228027 71.56542969 87.65307617 C73.38660392 88.75375136 75.19329211 89.87578199 77 91 C78.0828125 91.65484375 79.165625 92.3096875 80.28125 92.984375 C87.703125 97.5546875 87.703125 97.5546875 90 101 C91.22586479 108.20195564 87.79071262 114.02769359 84 120 C79.4675645 125.50253573 75.07299167 130.43916675 67.66796875 131.2578125 C58.34526633 130.75864418 50.96475735 126.49444367 43 122 C42.00613281 121.45085937 41.01226562 120.90171875 39.98828125 120.3359375 C32.64014128 115.98068958 26.61071564 110.38338043 20.51513672 104.46386719 C19.1639763 103.15842763 17.78861452 101.87814376 16.41015625 100.6015625 C8.60671965 93.19019484 2.36651312 84.63252615 -4 76 C-4.91130057 74.7850379 -5.8227491 73.57018676 -6.734375 72.35546875 C-17.52522059 57.80626869 -30.68540278 38.9139645 -29 20 C-27.28487846 12.12206886 -22.57929534 6.49855957 -15.9375 2.125 C-10.46737735 -1.02446456 -6.22127816 -1.58359808 0 0 Z " fill="#010101" transform="translate(79,55)"/>
</svg>
