<?xml version="1.0" encoding="UTF-8"?>
<svg version="1.1" xmlns="http://www.w3.org/2000/svg" width="200" height="200">
<path d="M0 0 C66 0 132 0 200 0 C200 66 200 132 200 200 C134 200 68 200 0 200 C0 134 0 68 0 0 Z " fill="#0B0B0B" transform="translate(0,0)"/>
<path d="M0 0 C66 0 132 0 200 0 C200 66 200 132 200 200 C134 200 68 200 0 200 C0 134 0 68 0 0 Z M161.51304626 10.36669922 C160.87573074 11.00623535 160.23841522 11.64577148 159.58178711 12.3046875 C158.86111557 13.02543457 158.14044403 13.74618164 157.39793396 14.48876953 C156.61563919 15.27622559 155.83334442 16.06368164 155.02734375 16.875 C154.22970108 17.67405762 153.43205841 18.47311523 152.61024475 19.29638672 C150.0503193 21.8619326 147.49388307 24.43092482 144.9375 27 C143.20791014 28.73460222 141.47809544 30.46898028 139.74804688 32.203125 C135.49608057 36.46614741 131.24697781 40.73200817 127 45 C124.15250586 43.86295435 121.30861502 42.71855125 118.46875 41.5625 C98.84920139 33.74734681 77.76432984 31.91273911 57.83984375 39.86181641 C49.43315858 43.52925188 41.92616503 47.95534688 35 54 C34.35160156 54.495 33.70320313 54.99 33.03515625 55.5 C23.38502677 63.14366692 16.21695696 74.5516834 12 86 C11.60941406 86.96164063 11.21882812 87.92328125 10.81640625 88.9140625 C5.21711393 104.84007734 6.11137513 124.30376889 12 140 C12.31195312 140.84175781 12.62390625 141.68351563 12.9453125 142.55078125 C13.85953855 144.77488581 14.87458302 146.87552866 16 149 C16.41894531 149.79664063 16.83789062 150.59328125 17.26953125 151.4140625 C21.01872307 158.08617797 25.65432216 163.54950495 31 169 C32.09054688 170.1446875 32.09054688 170.1446875 33.203125 171.3125 C47.61756513 185.43276789 65.86844308 191.27569254 85.625 191.4375 C86.75728027 191.44789307 87.88956055 191.45828613 89.05615234 191.46899414 C109.52318799 191.25322272 128.80198814 182.50666236 143.375 168.25 C157.55086089 153.75875925 165.63280146 133.93792138 165.4375 113.75 C165.43065186 112.65679443 165.42380371 111.56358887 165.41674805 110.43725586 C165.18336152 98.6202055 162.91759763 88.3439561 156.85546875 78.05078125 C155.78049377 75.47378644 156.05793487 74.5984247 157 72 C158.44898987 70.19697571 158.44898987 70.19697571 160.32641602 68.34887695 C161.0270668 67.65168045 161.72771759 66.95448395 162.44960022 66.23616028 C163.21002121 65.4943602 163.9704422 64.75256012 164.75390625 63.98828125 C165.52935287 63.21945114 166.3047995 62.45062103 167.10374451 61.65849304 C169.58301659 59.20264725 172.0722225 56.75718121 174.5625 54.3125 C177.05458773 51.85540071 179.54455522 49.39620454 182.03196716 46.93437195 C183.58131152 45.40209154 185.13371581 43.8728982 186.68934631 42.34700012 C187.38684494 41.6592601 188.08434357 40.97152008 188.80297852 40.26293945 C189.73111107 39.35171074 189.73111107 39.35171074 190.67799377 38.42207336 C192.11347808 37.20154022 192.11347808 37.20154022 192 36 C179.13 35.505 179.13 35.505 166 35 C165.5625 25.9375 165.5625 25.9375 165.43188477 23.12475586 C165.19098859 18.35827099 164.7608263 13.71200826 164 9 C162.78610383 8.88721528 162.78610383 8.88721528 161.51304626 10.36669922 Z " fill="#FDFDFD" transform="translate(0,0)"/>
<path d="M0 0 C1.19109375 0.40089844 2.3821875 0.80179688 3.609375 1.21484375 C6.86047793 2.53131149 9.35236243 3.69935981 12 6 C13.42565749 9.74744256 13.25753045 13.04389388 13 17 C13.10255822 18.64593434 13.20658721 20.29177811 13.3125 21.9375 C13.29468994 25.25017062 13.1479052 25.81049646 11 28.5625 C10.34 29.036875 9.68 29.51125 9 30 C6.02088298 28.58137285 3.32548631 26.92350374 0.5625 25.125 C-12.13567133 17.56170963 -25.90909526 16.06309509 -40.25 19.0625 C-54.00906236 23.0311003 -64.79210746 31.8199136 -72 44 C-77.69148306 55.84722607 -79.39836841 70.67079384 -75.875 83.5 C-75.30211051 85.02066519 -74.6749424 86.52179915 -74 88 C-73.41412109 89.3303125 -73.41412109 89.3303125 -72.81640625 90.6875 C-66.03129318 104.52682411 -55.21566628 111.67872129 -41.359375 117.203125 C-27.45532894 121.89919354 -13.91728771 118.77051103 -1.1171875 112.61328125 C8.5182086 107.23572838 15.02731575 99.7688235 20 90 C20.41507812 89.2265625 20.83015625 88.453125 21.2578125 87.65625 C25.92245183 77.34837567 26.00049452 62.49095235 22.375 51.8125 C20.41028859 47.40593298 17.95434099 43.25980565 15.3671875 39.19140625 C14.10829714 37.17358485 13.02555197 35.14389198 12 33 C13.37890625 31.015625 13.37890625 31.015625 16 29 C19.33706912 28.42630942 22.56610355 28.58058309 25.9375 28.75 C26.83146484 28.74871094 27.72542969 28.74742188 28.64648438 28.74609375 C35.05382164 29.02198504 35.05382164 29.02198504 37.68334961 31.73999023 C38.97787266 33.78353956 40.02553835 35.78787215 41 38 C41.556875 39.175625 42.11375 40.35125 42.6875 41.5625 C50.12136891 61.03215667 48.11518563 82.08620736 40 101 C33.71965423 113.23273615 23.83588476 124.01341552 12 131 C11.09894531 131.53238281 10.19789062 132.06476563 9.26953125 132.61328125 C-7.66454492 141.82304197 -29.17461547 144.38293828 -47.85546875 139.16796875 C-58.71503775 135.13441455 -68.40551353 129.84086546 -77 122 C-77.6084375 121.48308594 -78.216875 120.96617187 -78.84375 120.43359375 C-89.86652234 110.43794338 -99.22124756 92.9703103 -100.12109375 77.9831543 C-100.89049178 56.23163072 -97.06745 36.54528092 -82 20 C-81.32324219 19.24332031 -80.64648438 18.48664062 -79.94921875 17.70703125 C-59.40710389 -4.07563762 -27.80385686 -9.76809509 0 0 Z " fill="#FCFCFC" transform="translate(113,45)"/>
<path d="M0 0 C-1.65863505 4.32504836 -4.871041 7.09418825 -8.125 10.25 C-8.96998047 11.08144531 -8.96998047 11.08144531 -9.83203125 11.9296875 C-11.21686028 13.29104485 -12.60783204 14.64614859 -14 16 C-19 14 -19 14 -21.44921875 12.89453125 C-27.37708017 10.8156947 -34.53058986 11.19493431 -40.4375 13.25 C-46.35612085 16.1573927 -49.99108259 19.3200044 -53.04296875 25.171875 C-55.21782209 31.59878855 -55.36559446 39.10173916 -53.11328125 45.53125 C-49.50160123 51.7706972 -43.85596479 56.75530634 -37 59 C-28.65082656 60.12188328 -21.90326324 58.88878784 -15 54 C-10.06402713 49.59653872 -7.35116468 45.15012806 -6.78515625 38.4609375 C-6.56846499 32.16822327 -7.57258701 27.76510584 -10 22 C-10 18 -10 18 -8.80664062 16.35253906 C-8.26201172 15.82885742 -7.71738281 15.30517578 -7.15625 14.765625 C-6.56972656 14.19199219 -5.98320313 13.61835937 -5.37890625 13.02734375 C-4.44884766 12.14755859 -4.44884766 12.14755859 -3.5 11.25 C-2.56994141 10.34701172 -2.56994141 10.34701172 -1.62109375 9.42578125 C-0.08955179 7.94136366 1.45409774 6.46945655 3 5 C9.14074539 7.82854583 11.59549256 13.50700565 14.05078125 19.61328125 C18.38788288 33.48789547 16.39554017 46.36708762 9.82421875 58.96875 C3.32824689 69.76291308 -5.64963263 76.56767528 -17.55126953 80.39575195 C-21.67979007 81.41450453 -25.70412331 81.44613211 -29.9375 81.375 C-30.81849365 81.36412354 -31.6994873 81.35324707 -32.60717773 81.34204102 C-45.49819788 81.02552843 -55.43474361 76.51128968 -64.875 67.5625 C-74.70391036 57.00465132 -77.6361423 44.37150814 -77.33984375 30.21484375 C-76.65206898 17.65510614 -69.49290174 8.08950746 -60.6875 -0.25 C-42.65753603 -15.64292843 -18.32253718 -14.06909105 0 0 Z " fill="#FBFBFB" transform="translate(117,78)"/>
<path d="M0 0 C0.763125 0.495 1.52625 0.99 2.3125 1.5 C0.31583635 6.48588841 -3.7931933 9.50746127 -7.66796875 13.0625 C-9.97958723 15.27226121 -9.97958723 15.27226121 -9.48828125 17.8125 C-9.22402344 18.369375 -8.95976563 18.92625 -8.6875 19.5 C-4.76732773 16.13700957 -0.89976796 12.7829586 2.6875 9.0625 C5.3125 6.5 5.3125 6.5 7.3125 6.5 C10.85222683 11.95707886 11.2698411 17.19228525 10.3125 23.5 C7.85174038 29.58607626 3.76410095 33.58244392 -1.9375 36.75 C-8.41993023 38.51793552 -14.01990737 38.08352334 -19.8984375 34.76953125 C-24.19659836 31.71952627 -27.37114051 27.6457689 -28.6875 22.5 C-29.32177809 16.50833732 -28.81814312 11.78296026 -25.6875 6.5 C-18.34979017 -1.14344774 -10.29670032 -4.18848826 0 0 Z " fill="#F9F9F9" transform="translate(95.6875,95.5)"/>
<path d="M0 0 C0.33 6.27 0.66 12.54 1 19 C4.3103125 18.9690625 4.3103125 18.9690625 7.6875 18.9375 C11.95634906 18.89760421 15.84373632 18.99073521 20 20 C14.75541414 26.36590304 8.97902678 32.13570612 3.125 37.9375 C2.14039081 38.91708237 1.156014 39.89689837 0.171875 40.87695312 C-2.21648203 43.25360252 -4.60715212 45.62787356 -7 48 C-10.21367037 46.4844458 -12.04418932 45.06803732 -14.3125 42.3125 C-17.68492341 38.32493498 -21.27078872 34.65097608 -25 31 C-26.33402949 29.66736319 -27.66743934 28.33410556 -29 27 C-25.19776083 23.14844023 -21.38908788 19.30340607 -17.57421875 15.46435547 C-16.27651486 14.15657422 -14.98060901 12.84700631 -13.68652344 11.53564453 C-11.82953602 9.65448499 -9.96624438 7.77977878 -8.1015625 5.90625 C-7.52129303 5.31565796 -6.94102356 4.72506592 -6.34317017 4.11657715 C-2.22774341 0 -2.22774341 0 0 0 Z " fill="#F8F8F8" transform="translate(160,21)"/>
<path d="M0 0 C3.97174513 1.98587256 6.15007608 3.88194787 9.25 7 C10.14203125 7.886875 11.0340625 8.77375 11.953125 9.6875 C14 12 14 12 14 14 C7.07 13.505 7.07 13.505 0 13 C0 8.71 0 4.42 0 0 Z " fill="#F1F1F1" transform="translate(131,56)"/>
</svg>
